<?xml version="1.0" encoding="utf-8"?>
<!-- Generator: Adobe Illustrator 27.5.0, SVG Export Plug-In . SVG Version: 6.00 Build 0)  -->
<svg version="1.1" id="Layer_1" xmlns="http://www.w3.org/2000/svg" xmlns:xlink="http://www.w3.org/1999/xlink" x="0px" y="0px"
	 viewBox="0 0 364.8 247.306" style="enable-background:new 0 0 364.8 247.306;" xml:space="preserve">
<g>
	<g>
		<path style="fill:#FFFFFF;" d="M124.105,239.209c1.708,1.287,3.717,1.914,5.714,1.914c2.688,0,5.352-1.137,7.224-3.325l0.33-0.386
			c3.819-4.419,7.76-8.858,11.673-13.15c0.728-0.788,1.45-1.578,2.174-2.369c1.27-1.389,2.539-2.776,3.816-4.131l6.163-6.508
			c0.023-0.024,0.048-0.051,0.071-0.075c0.582-0.629,1.19-1.236,1.795-1.844c0.392-0.393,0.782-0.785,1.122-1.133l6.205-6.258
			l3.109-2.955c0.812-0.752,1.608-1.519,2.404-2.285c1.311-1.263,2.549-2.455,3.781-3.493c0.034-0.029,0.069-0.06,0.104-0.089
			l2.967-2.571l58.257,13.273l0.236,0.055c3.309,0.771,6.777-0.293,9.093-2.779l31.699-33.922
			c9.885,2.626,19.154,4.832,28.199,6.716c6.791,1.399,12.383,2.372,17.627,3.067c3.609,0.466,6.619,0.729,9.428,0.826
			c1.015,0.039,2.093,0.042,3.215,0.005c0.634-0.015,1.239-0.044,1.803-0.083c0.118-0.005,0.236-0.012,0.354-0.02
			c0.163-0.013,0.311-0.026,0.473-0.047c2.948-0.281,5.368-0.938,7.379-2c1.136-0.583,2.17-1.402,3.024-2.452
			c0.053-0.066,0.104-0.131,0.156-0.196c1.455-1.886,2.093-4.148,1.964-6.357c-0.023-0.392-0.07-0.781-0.141-1.164
			c0,0,0-0.002-0.001-0.003c-0.4-2.187-1.566-4.241-3.445-5.729l-69.704-55.204c-1.24-0.979-2.48-1.986-3.643-2.939
			c-2.505-5.191-7.119-9-12.689-10.474l-4.653-3.831l-27.939-60.434c-1.426-3.086-4.392-5.175-7.777-5.476l-0.296-0.027
			c-0.515-0.045-1.028-0.088-1.542-0.131c-1.192-0.098-2.317-0.191-3.378-0.32c-0.038-0.005-0.076-0.01-0.114-0.014l-5.314-0.586
			c-1.838-0.187-3.313-0.374-4.64-0.592c-0.047-0.008-0.093-0.016-0.14-0.021l-10.392-1.544c-0.041-0.006-0.081-0.012-0.121-0.017
			c-0.202-0.028-0.584-0.109-0.952-0.189c-0.343-0.073-0.685-0.146-1.028-0.213l-12.972-2.688c-1.724-0.352-3.513-0.218-5.164,0.387
			l-39.574,14.681L99.783,27.2l-0.24-0.017c-2.165-0.151-4.308,0.441-6.085,1.68L21.825,79.216
			c-3.533,2.482-4.946,7.036-3.442,11.083l0.201,0.539c2.503,6.674,5.397,13.58,8.85,21.116c3.146,6.858,6.506,13.717,9.983,20.378
			c7.14,13.705,14.949,26.885,23.218,39.18c8.97,13.313,18.486,25.517,28.341,36.332c2.641,2.849,5.238,5.63,7.984,8.327
			c2.086,2.151,4.231,4.138,6.307,6.059c0.688,0.638,1.376,1.274,2.059,1.915c0.088,0.082,0.177,0.163,0.268,0.243l1.585,1.382
			c2.31,2.021,4.697,4.108,7.269,6.115c2.311,1.923,4.659,3.645,6.933,5.311c0.782,0.573,1.565,1.146,2.302,1.695L124.105,239.209z"
			/>
		<path style="fill:#F1F1F1;" d="M123.317,238.421c1.708,1.288,3.718,1.914,5.714,1.914c2.688,0,5.352-1.137,7.225-3.325
			l0.329-0.386c3.819-4.419,7.746-8.87,11.674-13.15c0.725-0.79,1.45-1.578,2.173-2.368c1.27-1.39,2.54-2.777,3.816-4.132
			l6.163-6.507c0.023-0.025,0.048-0.051,0.071-0.076c0.582-0.629,1.19-1.236,1.795-1.844c0.392-0.393,0.782-0.785,1.122-1.133
			l6.205-6.258l3.11-2.955c0.811-0.752,1.607-1.518,2.403-2.285c1.311-1.263,2.556-2.447,3.781-3.493
			c0.035-0.029,0.069-0.06,0.105-0.089l2.966-2.571l58.257,13.273l0.236,0.055c3.31,0.771,6.777-0.293,9.093-2.779l31.699-33.922
			c9.885,2.626,19.155,4.833,28.199,6.716c6.791,1.399,12.383,2.373,17.627,3.067c3.61,0.466,6.619,0.73,9.428,0.827
			c1.015,0.039,2.093,0.036,3.216,0.004c0.633-0.018,1.237-0.053,1.803-0.083c0.117-0.007,0.235-0.011,0.353-0.02
			c0.163-0.013,0.311-0.028,0.473-0.047c2.943-0.327,5.362-0.949,7.379-2c1.132-0.59,2.17-1.402,3.024-2.452
			c0.053-0.064,0.105-0.131,0.156-0.196c1.455-1.886,2.093-4.148,1.964-6.356c-0.023-0.393-0.069-0.781-0.14-1.164l-0.001-0.003
			c-0.401-2.187-1.567-4.241-3.446-5.729l-69.704-55.204c-1.24-0.979-2.48-1.986-3.644-2.938c-2.505-5.191-7.119-9-12.69-10.475
			l-4.653-3.831l-27.939-60.434c-1.426-3.086-4.392-5.174-7.777-5.476l-0.296-0.027c-0.514-0.045-1.028-0.088-1.542-0.13
			c-1.192-0.099-2.317-0.191-3.378-0.321c-0.038-0.005-0.076-0.01-0.114-0.014l-5.314-0.586c-1.838-0.187-3.312-0.377-4.64-0.592
			c-0.047-0.008-0.093-0.015-0.14-0.021l-10.392-1.544c-0.041-0.006-0.08-0.012-0.121-0.017c-0.203-0.025-0.584-0.109-0.952-0.189
			c-0.342-0.073-0.685-0.146-1.028-0.213l-12.972-2.687c-1.724-0.352-3.513-0.219-5.164,0.386L139.255,29.32l-40.259-2.908
			l-0.24-0.017c-2.166-0.151-4.309,0.442-6.085,1.68L21.037,78.428c-3.532,2.482-4.946,7.036-3.441,11.084l0.2,0.539
			c2.503,6.673,5.397,13.579,8.85,21.115c3.146,6.858,6.506,13.717,9.983,20.378c7.14,13.705,14.949,26.885,23.219,39.181
			c8.969,13.311,18.441,25.558,28.34,36.331c2.629,2.86,5.271,5.597,7.984,8.327c2.112,2.126,4.231,4.138,6.307,6.059
			c0.688,0.638,1.376,1.274,2.059,1.915c0.088,0.083,0.177,0.163,0.27,0.243l1.584,1.383c2.311,2.02,4.697,4.107,7.27,6.114
			c2.311,1.923,4.659,3.646,6.934,5.311c0.781,0.573,1.565,1.146,2.301,1.695L123.317,238.421z"/>
		<path style="fill:#E2E2E2;" d="M122.529,237.633c1.708,1.288,3.718,1.914,5.714,1.914c2.688,0,5.353-1.137,7.225-3.324
			l0.329-0.387c3.819-4.419,7.747-8.87,11.674-13.15c0.725-0.79,1.45-1.578,2.174-2.368c1.269-1.39,2.539-2.777,3.816-4.132
			l6.163-6.507c0.025-0.025,0.048-0.051,0.071-0.076c0.583-0.629,1.19-1.235,1.795-1.843c0.392-0.393,0.782-0.785,1.122-1.133
			l6.205-6.258l3.11-2.956c0.811-0.751,1.607-1.518,2.403-2.285c1.311-1.263,2.556-2.446,3.781-3.493
			c0.035-0.029,0.07-0.059,0.105-0.089l2.966-2.571l58.257,13.273l0.237,0.055c3.309,0.771,6.776-0.293,9.092-2.779l31.699-33.922
			c9.885,2.626,19.155,4.833,28.199,6.717c6.791,1.398,12.383,2.372,17.627,3.066c3.61,0.466,6.62,0.73,9.428,0.827
			c1.015,0.038,2.093,0.036,3.216,0.005c0.634-0.018,1.237-0.053,1.803-0.084c0.117-0.007,0.235-0.012,0.354-0.02
			c0.162-0.012,0.311-0.028,0.472-0.047c2.943-0.327,5.362-0.949,7.379-2c1.133-0.59,2.17-1.402,3.025-2.451
			c0.053-0.065,0.105-0.131,0.155-0.197c1.456-1.885,2.093-4.146,1.964-6.355c-0.023-0.393-0.069-0.781-0.14-1.164l-0.001-0.004
			c-0.401-2.187-1.567-4.241-3.445-5.73l-69.705-55.203c-1.24-0.98-2.48-1.987-3.643-2.939c-2.506-5.191-7.12-9-12.689-10.474
			l-4.654-3.832l-27.939-60.433c-1.426-3.086-4.391-5.174-7.777-5.477l-0.296-0.026c-0.514-0.046-1.028-0.089-1.542-0.131
			c-1.191-0.099-2.317-0.191-3.378-0.321c-0.038-0.005-0.076-0.01-0.114-0.013l-5.314-0.587c-1.838-0.187-3.312-0.376-4.64-0.592
			c-0.046-0.008-0.093-0.015-0.14-0.022l-10.391-1.543c-0.041-0.006-0.081-0.012-0.122-0.018c-0.202-0.025-0.583-0.109-0.952-0.189
			c-0.342-0.072-0.685-0.146-1.027-0.213l-12.973-2.686c-1.723-0.352-3.513-0.218-5.164,0.386l-39.574,14.682l-40.259-2.908
			l-0.24-0.017c-2.165-0.15-4.309,0.442-6.085,1.68L20.249,77.64c-3.532,2.483-4.946,7.036-3.441,11.084l0.2,0.539
			c2.503,6.673,5.398,13.579,8.85,21.116c3.146,6.857,6.506,13.717,9.983,20.377c7.14,13.705,14.949,26.885,23.219,39.181
			c8.969,13.311,18.44,25.558,28.34,36.331c2.629,2.859,5.271,5.598,7.984,8.327c2.112,2.126,4.231,4.138,6.307,6.059
			c0.688,0.637,1.376,1.273,2.059,1.914c0.089,0.083,0.178,0.164,0.27,0.243l1.584,1.383c2.311,2.021,4.697,4.107,7.271,6.114
			c2.31,1.924,4.658,3.646,6.933,5.311c0.782,0.573,1.565,1.146,2.302,1.695L122.529,237.633z"/>
		<path style="fill:#D4D4D4;" d="M121.741,236.846c1.708,1.287,3.718,1.914,5.714,1.914c2.687,0,5.353-1.137,7.225-3.325
			l0.329-0.386c3.819-4.419,7.747-8.871,11.674-13.151c0.725-0.79,1.45-1.578,2.174-2.368c1.269-1.389,2.539-2.777,3.816-4.131
			l6.163-6.508c0.024-0.025,0.048-0.051,0.071-0.076c0.583-0.629,1.19-1.235,1.795-1.843c0.392-0.393,0.782-0.785,1.122-1.133
			l6.206-6.258l3.109-2.956c0.811-0.751,1.607-1.518,2.403-2.285c1.311-1.262,2.556-2.446,3.782-3.492
			c0.034-0.029,0.069-0.06,0.104-0.09l2.966-2.571l58.257,13.274l0.237,0.055c3.309,0.77,6.776-0.293,9.093-2.779l31.698-33.922
			c9.886,2.625,19.155,4.832,28.2,6.716c6.79,1.398,12.382,2.372,17.626,3.067c3.61,0.465,6.62,0.729,9.428,0.826
			c1.016,0.039,2.093,0.036,3.216,0.005c0.634-0.019,1.238-0.053,1.803-0.084c0.117-0.007,0.235-0.011,0.353-0.02
			c0.162-0.012,0.312-0.028,0.472-0.046c2.944-0.328,5.362-0.949,7.38-2c1.132-0.59,2.17-1.403,3.025-2.452
			c0.053-0.065,0.104-0.131,0.155-0.197c1.456-1.885,2.094-4.146,1.965-6.355c-0.023-0.393-0.07-0.781-0.141-1.165l-0.001-0.002
			c-0.4-2.187-1.567-4.242-3.445-5.73l-69.705-55.203c-1.24-0.98-2.48-1.986-3.643-2.939c-2.505-5.191-7.119-9-12.69-10.475
			l-4.653-3.831l-27.94-60.434c-1.426-3.085-4.391-5.174-7.777-5.477l-0.296-0.026c-0.514-0.046-1.027-0.088-1.541-0.131
			c-1.192-0.099-2.318-0.191-3.379-0.321c-0.037-0.005-0.075-0.009-0.113-0.013l-5.315-0.587c-1.838-0.187-3.312-0.376-4.64-0.592
			c-0.046-0.007-0.093-0.015-0.139-0.021l-10.392-1.543c-0.041-0.006-0.081-0.012-0.122-0.017c-0.202-0.025-0.583-0.11-0.951-0.189
			c-0.343-0.073-0.686-0.147-1.028-0.214l-12.973-2.686c-1.723-0.352-3.513-0.218-5.163,0.386l-39.575,14.682L97.42,24.837
			l-0.24-0.017c-2.165-0.151-4.309,0.441-6.085,1.679L19.461,76.852c-3.532,2.482-4.946,7.036-3.441,11.084l0.2,0.539
			c2.503,6.674,5.398,13.579,8.85,21.116c3.146,6.857,6.507,13.717,9.983,20.378c7.141,13.704,14.949,26.885,23.219,39.18
			c8.969,13.313,18.44,25.559,28.34,36.331c2.629,2.86,5.271,5.597,7.984,8.327c2.113,2.126,4.231,4.138,6.307,6.06
			c0.688,0.637,1.376,1.273,2.059,1.915c0.089,0.082,0.178,0.163,0.27,0.242l1.584,1.383c2.311,2.021,4.697,4.107,7.271,6.114
			c2.31,1.924,4.659,3.646,6.933,5.311c0.782,0.573,1.565,1.146,2.302,1.696L121.741,236.846z"/>
		<path style="fill:#C5C5C5;" d="M120.953,236.058c1.708,1.288,3.718,1.914,5.715,1.914c2.688,0,5.352-1.137,7.224-3.325
			l0.329-0.386c3.82-4.419,7.747-8.871,11.674-13.151c0.725-0.789,1.45-1.578,2.174-2.368c1.27-1.389,2.539-2.776,3.815-4.131
			l6.163-6.507c0.024-0.025,0.049-0.052,0.072-0.076c0.582-0.629,1.189-1.236,1.795-1.844c0.392-0.392,0.782-0.785,1.121-1.133
			l6.206-6.258l3.109-2.955c0.811-0.752,1.608-1.519,2.404-2.285c1.311-1.263,2.555-2.447,3.781-3.493
			c0.034-0.029,0.069-0.06,0.104-0.089l2.966-2.572l58.258,13.274l0.236,0.055c3.31,0.77,6.777-0.293,9.093-2.779l31.698-33.922
			c9.886,2.626,19.155,4.833,28.2,6.716c6.791,1.398,12.382,2.372,17.627,3.067c3.609,0.466,6.619,0.729,9.427,0.826
			c1.016,0.039,2.094,0.036,3.216,0.005c0.634-0.018,1.238-0.053,1.803-0.084c0.118-0.006,0.235-0.011,0.354-0.02
			c0.162-0.012,0.311-0.028,0.473-0.046c2.943-0.327,5.362-0.949,7.379-2c1.132-0.59,2.17-1.403,3.024-2.452
			c0.053-0.065,0.104-0.131,0.156-0.197c1.455-1.885,2.093-4.146,1.964-6.355c-0.023-0.393-0.07-0.781-0.141-1.164
			c0,0,0-0.002-0.001-0.003c-0.4-2.186-1.566-4.241-3.445-5.729l-69.704-55.204c-1.241-0.979-2.482-1.986-3.644-2.94
			c-2.505-5.191-7.119-9-12.689-10.474l-4.653-3.832l-27.94-60.434c-1.426-3.085-4.391-5.174-7.776-5.477l-0.296-0.026
			c-0.515-0.046-1.028-0.088-1.542-0.131c-1.192-0.099-2.317-0.191-3.378-0.321c-0.038-0.004-0.076-0.009-0.114-0.013l-5.316-0.586
			c-1.838-0.187-3.312-0.377-4.64-0.593c-0.046-0.007-0.093-0.015-0.139-0.021l-10.392-1.544c-0.041-0.006-0.081-0.012-0.121-0.017
			c-0.203-0.025-0.584-0.109-0.952-0.189c-0.343-0.073-0.685-0.146-1.028-0.214l-12.973-2.686c-1.723-0.352-3.512-0.218-5.163,0.386
			l-39.575,14.682l-40.259-2.908l-0.24-0.017c-2.165-0.151-4.309,0.441-6.085,1.679L18.674,76.064
			c-3.533,2.482-4.947,7.035-3.442,11.083l0.2,0.539c2.504,6.673,5.398,13.579,8.85,21.116c3.146,6.857,6.507,13.717,9.984,20.378
			c7.14,13.704,14.949,26.885,23.218,39.18c8.97,13.313,18.44,25.559,28.341,36.331c2.628,2.86,5.271,5.598,7.984,8.328
			c2.112,2.125,4.23,4.137,6.307,6.059c0.688,0.637,1.375,1.273,2.059,1.915c0.088,0.082,0.177,0.163,0.269,0.243l1.585,1.382
			c2.31,2.021,4.697,4.108,7.27,6.114c2.31,1.924,4.659,3.646,6.933,5.311c0.782,0.574,1.565,1.146,2.302,1.696L120.953,236.058z"/>
		<path style="fill:#B7B7B7;" d="M120.166,235.27c1.708,1.288,3.717,1.914,5.714,1.914c2.688,0,5.352-1.137,7.224-3.325l0.33-0.386
			c3.819-4.419,7.746-8.871,11.674-13.15c0.725-0.79,1.449-1.578,2.173-2.369c1.27-1.389,2.54-2.776,3.816-4.131l6.163-6.508
			c0.023-0.024,0.048-0.051,0.071-0.075c0.582-0.63,1.191-1.236,1.795-1.844c0.392-0.393,0.782-0.784,1.121-1.133l6.206-6.257
			l3.109-2.956c0.811-0.752,1.608-1.519,2.404-2.285c1.311-1.263,2.555-2.446,3.781-3.493c0.035-0.029,0.069-0.059,0.104-0.089
			l2.967-2.571l58.257,13.273l0.236,0.055c3.31,0.77,6.777-0.293,9.093-2.779l31.699-33.922c9.885,2.625,19.154,4.833,28.199,6.716
			c6.791,1.4,12.383,2.372,17.627,3.067c3.609,0.466,6.619,0.729,9.428,0.826c1.015,0.039,2.093,0.037,3.215,0.005
			c0.634-0.018,1.238-0.053,1.803-0.083c0.118-0.007,0.236-0.012,0.353-0.02c0.162-0.013,0.312-0.029,0.473-0.047
			c2.943-0.327,5.362-0.949,7.379-2c1.132-0.59,2.17-1.402,3.024-2.452c0.053-0.065,0.105-0.131,0.156-0.196
			c1.455-1.886,2.093-4.147,1.964-6.356c-0.023-0.392-0.069-0.781-0.141-1.164v-0.003c-0.401-2.186-1.567-4.241-3.446-5.729
			l-69.704-55.204c-1.24-0.979-2.48-1.986-3.644-2.939c-2.505-5.192-7.119-9-12.689-10.474l-4.653-3.831L229.508,22.92
			c-1.426-3.086-4.391-5.174-7.777-5.477l-0.296-0.027c-0.515-0.045-1.028-0.088-1.542-0.131c-1.192-0.098-2.317-0.191-3.378-0.32
			c-0.038-0.005-0.076-0.01-0.114-0.014l-5.314-0.586c-1.838-0.186-3.313-0.377-4.64-0.592c-0.047-0.008-0.093-0.016-0.14-0.022
			l-10.392-1.544c-0.041-0.006-0.081-0.012-0.121-0.017c-0.203-0.025-0.584-0.109-0.952-0.189c-0.342-0.073-0.685-0.146-1.028-0.213
			l-12.972-2.688c-1.723-0.352-3.513-0.218-5.164,0.387l-39.574,14.681l-40.26-2.908l-0.24-0.017
			c-2.165-0.151-4.308,0.441-6.085,1.68L17.886,75.276c-3.533,2.482-4.946,7.036-3.442,11.083l0.201,0.539
			c2.503,6.674,5.398,13.58,8.85,21.116c3.146,6.858,6.506,13.717,9.983,20.378c7.14,13.705,14.949,26.885,23.218,39.18
			c8.97,13.313,18.441,25.559,28.341,36.332c2.628,2.859,5.271,5.597,7.984,8.327c2.112,2.126,4.231,4.138,6.307,6.059
			c0.688,0.638,1.376,1.274,2.059,1.915c0.088,0.082,0.177,0.163,0.269,0.243l1.585,1.382c2.31,2.021,4.697,4.108,7.27,6.115
			c2.311,1.923,4.659,3.645,6.933,5.311c0.782,0.573,1.565,1.146,2.303,1.695L120.166,235.27z"/>
		<path style="fill:#A8A8A8;" d="M119.378,234.482c1.708,1.288,3.718,1.914,5.714,1.914c2.688,0,5.352-1.137,7.225-3.325
			l0.329-0.386c3.819-4.419,7.747-8.87,11.674-13.15c0.725-0.79,1.45-1.578,2.173-2.368c1.27-1.39,2.54-2.777,3.816-4.132
			l6.163-6.507c0.023-0.025,0.048-0.051,0.071-0.076c0.582-0.629,1.19-1.236,1.795-1.844c0.392-0.393,0.782-0.785,1.122-1.133
			l6.205-6.258l3.11-2.955c0.811-0.752,1.607-1.518,2.403-2.285c1.311-1.263,2.556-2.446,3.781-3.493
			c0.034-0.029,0.069-0.059,0.104-0.089l2.966-2.571l58.257,13.273l0.236,0.055c3.31,0.771,6.777-0.293,9.093-2.779l31.699-33.922
			c9.885,2.626,19.155,4.833,28.199,6.716c6.791,1.399,12.383,2.373,17.627,3.067c3.61,0.466,6.619,0.73,9.428,0.827
			c1.015,0.039,2.093,0.036,3.216,0.004c0.633-0.018,1.237-0.053,1.803-0.083c0.117-0.007,0.235-0.012,0.354-0.02
			c0.162-0.013,0.31-0.028,0.472-0.047c2.943-0.327,5.362-0.949,7.379-2c1.132-0.59,2.17-1.402,3.024-2.452
			c0.053-0.064,0.105-0.131,0.156-0.196c1.455-1.886,2.093-4.147,1.964-6.356c-0.023-0.393-0.069-0.78-0.14-1.164l-0.001-0.002
			c-0.401-2.188-1.567-4.242-3.446-5.73L277.646,99.81c-1.24-0.979-2.48-1.986-3.644-2.938c-2.505-5.191-7.119-9-12.689-10.475
			l-4.653-3.831l-27.94-60.434c-1.426-3.086-4.392-5.174-7.777-5.477l-0.296-0.027c-0.514-0.045-1.027-0.088-1.542-0.13
			c-1.192-0.099-2.317-0.191-3.378-0.321c-0.038-0.005-0.076-0.01-0.114-0.013l-5.314-0.587c-1.838-0.186-3.312-0.377-4.64-0.592
			c-0.047-0.008-0.093-0.015-0.14-0.022l-10.392-1.544c-0.041-0.005-0.08-0.012-0.121-0.017c-0.203-0.025-0.584-0.109-0.952-0.19
			c-0.342-0.073-0.685-0.146-1.027-0.213l-12.973-2.687c-1.723-0.352-3.513-0.219-5.164,0.386l-39.574,14.682l-40.259-2.909
			l-0.24-0.017c-2.166-0.151-4.309,0.442-6.086,1.68L17.098,74.488c-3.532,2.483-4.946,7.036-3.441,11.084l0.2,0.539
			c2.503,6.673,5.398,13.579,8.85,21.115c3.146,6.858,6.506,13.717,9.983,20.378c7.14,13.705,14.949,26.886,23.219,39.181
			c8.969,13.311,18.44,25.558,28.34,36.331c2.629,2.86,5.271,5.597,7.984,8.327c2.112,2.126,4.231,4.138,6.307,6.059
			c0.688,0.638,1.376,1.274,2.059,1.915c0.088,0.083,0.178,0.163,0.27,0.243l1.584,1.383c2.311,2.02,4.697,4.107,7.27,6.114
			c2.31,1.923,4.659,3.645,6.934,5.311c0.781,0.573,1.564,1.146,2.302,1.696L119.378,234.482z"/>
		<path style="fill:#9A9A9A;" d="M118.59,233.693c1.708,1.288,3.718,1.914,5.714,1.914c2.688,0,5.353-1.137,7.225-3.324l0.329-0.387
			c3.819-4.418,7.747-8.87,11.674-13.15c0.725-0.79,1.45-1.578,2.174-2.368c1.269-1.39,2.539-2.777,3.815-4.132l6.163-6.507
			c0.024-0.024,0.048-0.051,0.071-0.076c0.583-0.629,1.19-1.235,1.795-1.843c0.392-0.393,0.782-0.785,1.122-1.133l6.205-6.258
			l3.11-2.956c0.811-0.751,1.607-1.518,2.403-2.285c1.312-1.263,2.556-2.446,3.781-3.493c0.035-0.029,0.07-0.059,0.104-0.089
			l2.966-2.571l58.257,13.273l0.237,0.055c3.309,0.771,6.776-0.293,9.093-2.779l31.698-33.922
			c9.885,2.626,19.155,4.833,28.199,6.717c6.791,1.398,12.383,2.372,17.627,3.066c3.61,0.466,6.619,0.729,9.428,0.827
			c1.016,0.038,2.093,0.036,3.216,0.005c0.634-0.019,1.237-0.053,1.803-0.084c0.117-0.007,0.235-0.012,0.353-0.02
			c0.162-0.012,0.312-0.028,0.472-0.047c2.943-0.327,5.362-0.949,7.379-2c1.133-0.59,2.17-1.402,3.025-2.451
			c0.053-0.065,0.104-0.131,0.155-0.197c1.456-1.885,2.093-4.146,1.964-6.356c-0.023-0.393-0.069-0.781-0.14-1.165l-0.001-0.003
			c-0.401-2.185-1.567-4.241-3.445-5.729l-69.705-55.204c-1.24-0.979-2.48-1.986-3.643-2.938c-2.505-5.191-7.12-9-12.689-10.474
			l-4.654-3.832l-27.939-60.434c-1.426-3.086-4.391-5.174-7.777-5.477l-0.296-0.027c-0.514-0.045-1.027-0.088-1.542-0.13
			c-1.191-0.099-2.317-0.191-3.378-0.321c-0.038-0.005-0.075-0.01-0.114-0.013l-5.314-0.587c-1.838-0.186-3.312-0.377-4.64-0.592
			c-0.046-0.008-0.093-0.015-0.14-0.021l-10.391-1.544c-0.041-0.005-0.081-0.011-0.122-0.017c-0.202-0.025-0.583-0.109-0.952-0.189
			c-0.342-0.073-0.685-0.148-1.027-0.214l-12.973-2.687c-1.723-0.351-3.513-0.218-5.164,0.386l-39.574,14.682l-40.259-2.908
			l-0.24-0.017c-2.165-0.151-4.309,0.441-6.085,1.679L16.31,73.7c-3.532,2.483-4.946,7.036-3.441,11.084l0.2,0.539
			c2.503,6.673,5.397,13.579,8.85,21.116c3.146,6.857,6.506,13.717,9.983,20.377c7.14,13.705,14.949,26.885,23.219,39.181
			c8.969,13.311,18.44,25.558,28.34,36.331c2.629,2.86,5.271,5.597,7.984,8.327c2.112,2.126,4.231,4.138,6.307,6.06
			c0.688,0.637,1.376,1.273,2.059,1.914c0.088,0.083,0.178,0.164,0.27,0.243l1.584,1.383c2.311,2.021,4.697,4.107,7.271,6.114
			c2.31,1.924,4.658,3.645,6.933,5.311c0.782,0.573,1.565,1.146,2.302,1.695L118.59,233.693z"/>
		<path style="fill:#8B8B8B;" d="M117.802,232.906c1.708,1.287,3.718,1.914,5.714,1.914c2.688,0,5.353-1.137,7.225-3.325
			l0.329-0.386c3.819-4.42,7.747-8.871,11.674-13.151c0.725-0.79,1.45-1.578,2.174-2.368c1.268-1.389,2.539-2.777,3.815-4.131
			l6.163-6.508c0.024-0.025,0.048-0.051,0.071-0.076c0.583-0.629,1.19-1.235,1.795-1.843c0.392-0.393,0.782-0.785,1.122-1.133
			l6.206-6.258l3.109-2.956c0.811-0.751,1.607-1.518,2.404-2.285c1.311-1.262,2.555-2.446,3.781-3.492
			c0.034-0.029,0.069-0.06,0.104-0.09l2.966-2.571l58.257,13.274l0.237,0.055c3.309,0.77,6.776-0.293,9.093-2.779l31.698-33.922
			c9.886,2.625,19.155,4.832,28.199,6.716c6.792,1.399,12.383,2.372,17.628,3.067c3.609,0.465,6.619,0.729,9.427,0.826
			c1.016,0.039,2.093,0.036,3.216,0.005c0.634-0.019,1.238-0.053,1.803-0.084c0.117-0.007,0.235-0.011,0.354-0.02
			c0.162-0.012,0.311-0.028,0.472-0.046c2.944-0.328,5.362-0.949,7.38-2c1.132-0.59,2.17-1.403,3.024-2.452
			c0.053-0.065,0.104-0.131,0.155-0.197c1.456-1.885,2.094-4.146,1.964-6.355c-0.022-0.393-0.069-0.781-0.14-1.164l-0.001-0.003
			c-0.4-2.188-1.567-4.242-3.445-5.73L276.07,98.234c-1.241-0.98-2.481-1.986-3.644-2.939c-2.505-5.191-7.12-9-12.689-10.474
			l-4.653-3.832l-27.941-60.434c-1.426-3.086-4.391-5.174-7.776-5.476l-0.297-0.027c-0.514-0.046-1.027-0.088-1.541-0.131
			c-1.192-0.099-2.318-0.191-3.379-0.321c-0.037-0.005-0.075-0.009-0.113-0.013l-5.315-0.587c-1.838-0.187-3.312-0.376-4.64-0.592
			c-0.046-0.007-0.093-0.015-0.139-0.021l-10.392-1.544c-0.041-0.006-0.081-0.012-0.122-0.017c-0.202-0.025-0.583-0.109-0.951-0.19
			c-0.343-0.073-0.686-0.146-1.028-0.214l-12.973-2.687c-1.723-0.352-3.513-0.218-5.164,0.386l-39.574,14.682L93.48,20.897
			l-0.24-0.017c-2.165-0.151-4.309,0.441-6.085,1.679L15.523,72.912c-3.533,2.483-4.947,7.036-3.442,11.084l0.2,0.539
			c2.503,6.673,5.397,13.579,8.85,21.116c3.146,6.857,6.507,13.717,9.983,20.378c7.141,13.704,14.95,26.885,23.219,39.18
			c8.969,13.313,18.44,25.559,28.34,36.331c2.629,2.86,5.271,5.597,7.984,8.327c2.112,2.126,4.232,4.138,6.307,6.06
			c0.688,0.638,1.376,1.273,2.059,1.915c0.089,0.082,0.178,0.163,0.27,0.242l1.584,1.383c2.311,2.021,4.697,4.107,7.271,6.115
			c2.31,1.923,4.659,3.644,6.933,5.309c0.782,0.573,1.565,1.147,2.302,1.696L117.802,232.906z"/>
		<path style="fill:#7D7D7D;" d="M117.014,232.118c1.708,1.288,3.718,1.914,5.715,1.914c2.688,0,5.352-1.137,7.224-3.325
			l0.329-0.386c3.82-4.419,7.747-8.871,11.674-13.151c0.725-0.789,1.45-1.578,2.174-2.368c1.27-1.389,2.539-2.776,3.816-4.131
			l6.162-6.507c0.024-0.025,0.049-0.052,0.072-0.076c0.582-0.629,1.189-1.236,1.795-1.844c0.391-0.393,0.781-0.785,1.121-1.133
			l6.206-6.258l3.109-2.955c0.811-0.752,1.608-1.519,2.404-2.285c1.311-1.263,2.555-2.447,3.781-3.493
			c0.034-0.029,0.069-0.06,0.104-0.089l2.966-2.572l58.258,13.274l0.236,0.055c3.309,0.77,6.777-0.293,9.093-2.779l31.698-33.922
			c9.886,2.626,19.155,4.833,28.2,6.716c6.791,1.398,12.382,2.372,17.627,3.067c3.609,0.466,6.619,0.729,9.428,0.826
			c1.015,0.039,2.093,0.036,3.215,0.005c0.634-0.018,1.238-0.053,1.803-0.084c0.118-0.006,0.235-0.011,0.353-0.02
			c0.162-0.012,0.312-0.028,0.472-0.046c2.944-0.327,5.363-0.95,7.38-2c1.132-0.59,2.17-1.403,3.024-2.452
			c0.053-0.064,0.104-0.131,0.156-0.197c1.455-1.885,2.093-4.146,1.964-6.355c-0.023-0.393-0.07-0.781-0.141-1.164l-0.001-0.003
			c-0.4-2.186-1.566-4.241-3.445-5.729l-69.704-55.204c-1.241-0.979-2.481-1.986-3.643-2.939c-2.505-5.191-7.119-9-12.69-10.474
			l-4.653-3.832l-27.94-60.434c-1.426-3.085-4.391-5.174-7.776-5.476l-0.296-0.026c-0.515-0.046-1.028-0.088-1.542-0.131
			c-1.192-0.099-2.317-0.191-3.378-0.321c-0.038-0.004-0.076-0.009-0.114-0.013l-5.315-0.586c-1.838-0.186-3.311-0.377-4.639-0.592
			c-0.047-0.008-0.094-0.016-0.14-0.021l-10.392-1.544c-0.041-0.006-0.081-0.012-0.121-0.017c-0.203-0.025-0.584-0.109-0.952-0.189
			c-0.343-0.073-0.684-0.147-1.028-0.214L177.689,7.95c-1.723-0.352-3.512-0.218-5.163,0.386l-39.575,14.682l-40.259-2.908
			l-0.24-0.017c-2.165-0.151-4.309,0.441-6.085,1.679L14.734,72.125c-3.533,2.482-4.947,7.035-3.442,11.083l0.2,0.539
			c2.504,6.674,5.398,13.579,8.851,21.116c3.146,6.858,6.506,13.717,9.983,20.378c7.14,13.704,14.949,26.885,23.218,39.18
			c8.97,13.313,18.44,25.559,28.341,36.331c2.628,2.86,5.27,5.598,7.984,8.328c2.112,2.125,4.23,4.137,6.307,6.059
			c0.688,0.637,1.375,1.273,2.059,1.915c0.088,0.082,0.177,0.163,0.269,0.243l1.585,1.382c2.31,2.02,4.697,4.108,7.27,6.114
			c2.31,1.924,4.659,3.646,6.933,5.311c0.782,0.574,1.565,1.146,2.302,1.696L117.014,232.118z"/>
		<path style="fill:#6E6E6E;" d="M116.227,231.33c1.708,1.287,3.717,1.914,5.714,1.914c2.688,0,5.352-1.137,7.224-3.325l0.33-0.386
			c3.819-4.419,7.746-8.871,11.674-13.15c0.725-0.79,1.449-1.578,2.173-2.369c1.27-1.389,2.539-2.776,3.816-4.131l6.163-6.507
			c0.023-0.025,0.048-0.052,0.071-0.076c0.582-0.629,1.19-1.236,1.795-1.844c0.392-0.393,0.782-0.785,1.122-1.133l6.205-6.258
			l3.109-2.955c0.812-0.752,1.608-1.519,2.404-2.285c1.311-1.263,2.556-2.446,3.781-3.493c0.034-0.029,0.069-0.06,0.105-0.089
			l2.966-2.571l58.257,13.273l0.236,0.055c3.309,0.771,6.777-0.293,9.093-2.779l31.699-33.922
			c9.885,2.625,19.154,4.833,28.199,6.716c6.791,1.399,12.383,2.372,17.627,3.067c3.609,0.466,6.619,0.728,9.428,0.826
			c1.015,0.039,2.093,0.037,3.215,0.005c0.634-0.018,1.238-0.052,1.803-0.083c0.118-0.007,0.236-0.012,0.354-0.02
			c0.162-0.013,0.311-0.029,0.473-0.047c2.943-0.327,5.362-0.949,7.379-2c1.132-0.59,2.17-1.402,3.024-2.452
			c0.053-0.066,0.104-0.131,0.156-0.196c1.455-1.886,2.093-4.147,1.964-6.356c-0.023-0.393-0.069-0.781-0.141-1.164l-0.001-0.003
			c-0.4-2.186-1.566-4.241-3.445-5.729l-69.704-55.204c-1.24-0.979-2.48-1.986-3.644-2.939c-2.505-5.191-7.119-9-12.689-10.474
			l-4.653-3.831L225.568,18.98c-1.426-3.086-4.392-5.175-7.777-5.476l-0.296-0.027c-0.515-0.045-1.028-0.088-1.542-0.131
			c-1.192-0.098-2.317-0.191-3.378-0.32c-0.038-0.005-0.076-0.01-0.114-0.014l-5.314-0.586c-1.838-0.187-3.313-0.377-4.64-0.592
			c-0.047-0.008-0.093-0.016-0.14-0.021l-10.392-1.544c-0.041-0.006-0.081-0.012-0.121-0.017c-0.203-0.025-0.584-0.109-0.952-0.189
			c-0.343-0.073-0.684-0.146-1.028-0.213l-12.972-2.688c-1.724-0.352-3.513-0.218-5.164,0.387L132.164,22.23l-40.26-2.909
			l-0.24-0.017c-2.165-0.151-4.308,0.441-6.085,1.68L13.946,71.337C10.413,73.819,9,78.373,10.504,82.42l0.201,0.539
			c2.503,6.674,5.397,13.58,8.85,21.116c3.145,6.858,6.506,13.717,9.983,20.378c7.14,13.705,14.949,26.885,23.218,39.18
			c8.97,13.313,18.441,25.559,28.341,36.332c2.628,2.859,5.271,5.597,7.984,8.327c2.112,2.126,4.231,4.138,6.307,6.059
			c0.688,0.638,1.376,1.274,2.059,1.915c0.088,0.082,0.177,0.163,0.269,0.243l1.585,1.382c2.31,2.021,4.697,4.108,7.27,6.115
			c2.311,1.923,4.659,3.645,6.933,5.311c0.782,0.573,1.565,1.146,2.302,1.695L116.227,231.33z"/>
		<path style="fill:#606060;" d="M115.438,230.542c1.708,1.288,3.718,1.914,5.714,1.914c2.688,0,5.352-1.137,7.225-3.325
			l0.329-0.386c3.819-4.419,7.761-8.858,11.674-13.15c0.728-0.788,1.45-1.578,2.173-2.368c1.27-1.39,2.54-2.777,3.816-4.132
			l6.163-6.507c0.023-0.025,0.048-0.051,0.071-0.076c0.582-0.629,1.19-1.236,1.795-1.844c0.392-0.393,0.782-0.785,1.122-1.133
			l6.205-6.258l3.11-2.955c0.811-0.752,1.607-1.518,2.403-2.285c1.311-1.263,2.549-2.455,3.781-3.493
			c0.034-0.029,0.069-0.06,0.105-0.089l2.966-2.571l58.257,13.273l0.236,0.055c3.309,0.77,6.777-0.293,9.093-2.779l31.699-33.922
			c9.885,2.626,19.155,4.833,28.199,6.716c6.791,1.399,12.383,2.373,17.627,3.067c3.61,0.466,6.619,0.729,9.428,0.827
			c1.015,0.039,2.093,0.041,3.216,0.004c0.633-0.015,1.238-0.043,1.803-0.083c0.117-0.005,0.235-0.011,0.353-0.02
			c0.163-0.013,0.313-0.026,0.473-0.046c2.948-0.281,5.369-0.938,7.379-2.001c1.136-0.583,2.17-1.402,3.024-2.452
			c0.053-0.064,0.105-0.131,0.156-0.196c1.455-1.886,2.093-4.147,1.964-6.356c-0.023-0.393-0.069-0.781-0.14-1.164
			c0,0,0-0.002-0.001-0.003c-0.401-2.187-1.567-4.241-3.446-5.73l-69.704-55.203c-1.24-0.98-2.48-1.987-3.643-2.939
			c-2.505-5.191-7.119-9-12.69-10.475l-4.653-3.831L224.78,18.192c-1.426-3.086-4.392-5.174-7.777-5.476l-0.296-0.027
			c-0.514-0.045-1.028-0.088-1.542-0.13c-1.192-0.099-2.317-0.191-3.378-0.321c-0.038-0.005-0.076-0.01-0.114-0.014l-5.314-0.586
			c-1.838-0.187-3.313-0.374-4.64-0.592c-0.047-0.007-0.093-0.015-0.14-0.021l-10.392-1.544c-0.04-0.006-0.08-0.012-0.121-0.017
			c-0.202-0.027-0.584-0.109-0.952-0.189c-0.342-0.073-0.684-0.146-1.027-0.213l-12.973-2.687c-1.724-0.352-3.513-0.219-5.164,0.386
			l-39.574,14.682l-40.259-2.909l-0.24-0.017c-2.166-0.151-4.309,0.442-6.085,1.68L13.158,70.549
			c-3.532,2.482-4.946,7.036-3.441,11.084l0.2,0.539c2.503,6.673,5.397,13.579,8.85,21.115c3.146,6.858,6.506,13.717,9.983,20.378
			c7.14,13.705,14.949,26.885,23.219,39.181c8.969,13.312,18.485,25.516,28.34,36.331c2.641,2.849,5.238,5.63,7.984,8.327
			c2.086,2.151,4.231,4.138,6.307,6.059c0.688,0.638,1.376,1.275,2.059,1.915c0.088,0.083,0.177,0.163,0.269,0.243l1.584,1.383
			c2.311,2.019,4.697,4.107,7.269,6.114c2.311,1.923,4.659,3.645,6.934,5.311c0.782,0.573,1.564,1.146,2.302,1.695L115.438,230.542z
			"/>
	</g>
	<path style="fill:#FFFFFF;" d="M115.438,230.542c1.708,1.288,3.718,1.914,5.714,1.914c2.688,0,5.352-1.137,7.225-3.325l0.329-0.386
		c3.819-4.419,7.761-8.858,11.674-13.15c0.728-0.788,1.45-1.578,2.173-2.368c1.27-1.39,2.54-2.777,3.816-4.132l6.163-6.507
		c0.023-0.025,0.048-0.051,0.071-0.076c0.582-0.629,1.19-1.236,1.795-1.844c0.392-0.393,0.782-0.785,1.122-1.133l6.205-6.258
		l3.11-2.955c0.811-0.752,1.607-1.518,2.403-2.285c1.311-1.263,2.549-2.455,3.781-3.493c0.034-0.029,0.069-0.06,0.105-0.089
		l2.966-2.571l58.257,13.273l0.236,0.055c3.309,0.77,6.777-0.293,9.093-2.779l31.699-33.922c9.885,2.626,19.155,4.833,28.199,6.716
		c6.791,1.399,12.383,2.373,17.627,3.067c3.61,0.466,6.619,0.729,9.428,0.827c1.015,0.039,2.093,0.041,3.216,0.004
		c0.633-0.015,1.238-0.043,1.803-0.083c0.117-0.005,0.235-0.011,0.353-0.02c0.163-0.013,0.313-0.026,0.473-0.046
		c2.948-0.281,5.369-0.938,7.379-2.001c1.136-0.583,2.17-1.402,3.024-2.452c0.053-0.064,0.105-0.131,0.156-0.196
		c1.455-1.886,2.093-4.147,1.964-6.356c-0.023-0.393-0.069-0.781-0.14-1.164c0,0,0-0.002-0.001-0.003
		c-0.401-2.187-1.567-4.241-3.446-5.73l-69.704-55.203c-1.24-0.98-2.48-1.987-3.643-2.939c-2.505-5.191-7.119-9-12.69-10.475
		l-4.653-3.831L224.78,18.192c-1.426-3.086-4.392-5.174-7.777-5.476l-0.296-0.027c-0.514-0.045-1.028-0.088-1.542-0.13
		c-1.192-0.099-2.317-0.191-3.378-0.321c-0.038-0.005-0.076-0.01-0.114-0.014l-5.314-0.586c-1.838-0.187-3.313-0.374-4.64-0.592
		c-0.047-0.007-0.093-0.015-0.14-0.021l-10.392-1.544c-0.04-0.006-0.08-0.012-0.121-0.017c-0.202-0.027-0.584-0.109-0.952-0.189
		c-0.342-0.073-0.684-0.146-1.027-0.213l-12.973-2.687c-1.724-0.352-3.513-0.219-5.164,0.386l-39.574,14.682l-40.259-2.909
		l-0.24-0.017c-2.166-0.151-4.309,0.442-6.085,1.68L13.158,70.549c-3.532,2.482-4.946,7.036-3.441,11.084l0.2,0.539
		c2.503,6.673,5.397,13.579,8.85,21.115c3.146,6.858,6.506,13.717,9.983,20.378c7.14,13.705,14.949,26.885,23.219,39.181
		c8.969,13.312,18.485,25.516,28.34,36.331c2.641,2.849,5.238,5.63,7.984,8.327c2.086,2.151,4.231,4.138,6.307,6.059
		c0.688,0.638,1.376,1.275,2.059,1.915c0.088,0.083,0.177,0.163,0.269,0.243l1.584,1.383c2.311,2.019,4.697,4.107,7.269,6.114
		c2.311,1.923,4.659,3.645,6.934,5.311c0.782,0.573,1.564,1.146,2.302,1.695L115.438,230.542z"/>
	<g>
		<g>
			<g>
				<path style="fill:#ECEADD;" d="M337.513,158.521c-9.706,5.48-67.25-10.941-67.25-10.941l-35.67,37.943c0,0,0,0-63.214-14.484
					c-21.398,17.375-50.298,51.15-50.298,51.15C54.545,175.238,19.53,78.576,19.53,78.576L90.395,28.64l42.423,3.016
					c0,0,0,0,41.429-15.427c19.926,4.904,41.572,6.399,41.572,6.399l28.856,62.204C244.675,84.832,269.378,105.922,337.513,158.521z
					"/>
				<path style="fill:#83847F;" d="M290.766,122.051l-23.375-18.234c-3.9-3.036-7.677-6.215-11.52-9.312l-11.47-9.379l-0.06-0.05
					l-0.036-0.079l-28.939-62.165l0.405,0.271c-1.757-0.155-3.523-0.267-5.269-0.478l-5.248-0.565
					c-1.752-0.174-3.501-0.379-5.235-0.658l-5.217-0.762l-5.22-0.763c-0.874-0.116-1.723-0.333-2.586-0.498l-2.581-0.527
					l-10.316-2.113l0.332-0.021L133.023,32.19l-0.129,0.049l-0.135-0.011l-42.43-2.963l0.441-0.123L19.969,79.163l0.283-0.843
					c2.588,6.876,5.528,13.66,8.566,20.379c3.059,6.716,6.292,13.354,9.691,19.91c6.79,13.113,14.271,25.888,22.497,38.188
					c8.236,12.292,17.251,24.102,27.23,35.108c2.519,2.73,5.042,5.456,7.694,8.066c2.577,2.682,5.355,5.17,8.063,7.724
					c2.807,2.451,5.574,4.95,8.52,7.251c2.856,2.4,5.925,4.55,8.915,6.795l-0.785,0.104c3.92-4.518,7.897-8.974,11.937-13.385
					c2.032-2.194,4.037-4.413,6.095-6.585l6.192-6.504c1.018-1.094,2.1-2.135,3.147-3.203l3.17-3.187l3.178-3.181l3.27-3.093
					c2.209-2.036,4.297-4.187,6.605-6.126l6.834-5.899l0.183-0.155l0.247,0.056l63.194,14.558l-0.4,0.124l35.787-37.841l0.106-0.113
					l0.15,0.043c10.967,3.099,22.034,5.928,33.209,8.337c5.592,1.192,11.213,2.273,16.892,3.063
					c2.839,0.386,5.696,0.697,8.567,0.812c1.436,0.066,2.879,0.054,4.315-0.05c1.423-0.157,2.898-0.311,4.189-0.995L290.766,122.051
					z M333.324,159.546c-1.438,0.114-2.883,0.139-4.319,0.082c-2.879-0.1-5.74-0.389-8.587-0.756
					c-5.689-0.754-11.323-1.795-16.926-2.95c-11.205-2.333-22.297-5.086-33.306-8.113l0.255-0.071l-35.552,38.044l-0.164,0.176
					l-0.237-0.055l-63.231-14.408l0.43-0.1l-6.784,5.883c-2.292,1.929-4.371,4.085-6.566,6.116l-3.253,3.093l-3.16,3.178
					l-3.154,3.189c-1.044,1.069-2.119,2.107-3.135,3.203l-6.162,6.507c-2.05,2.174-4.046,4.393-6.072,6.588
					c-4.021,4.41-7.986,8.877-11.88,13.383l-0.363,0.423l-0.421-0.317c-3.016-2.248-6.109-4.407-8.99-6.817
					c-2.969-2.308-5.757-4.813-8.587-7.272c-2.729-2.56-5.529-5.056-8.127-7.741c-2.672-2.62-5.215-5.349-7.753-8.088
					c-10.054-11.033-19.134-22.867-27.432-35.183c-8.288-12.325-15.825-25.12-22.671-38.261c-3.429-6.567-6.687-13.22-9.774-19.948
					c-3.086-6.737-5.982-13.54-8.59-20.492l-0.191-0.515l0.471-0.331l70.925-49.857l0.201-0.141l0.24,0.018l42.418,3.064
					l-0.261,0.04l41.446-15.375l0.153-0.057l0.181,0.037l10.258,2.126l2.567,0.531c0.856,0.164,1.7,0.383,2.571,0.501l5.195,0.771
					l5.196,0.772c1.73,0.283,3.469,0.49,5.216,0.668l5.232,0.577c1.741,0.213,3.49,0.329,5.236,0.484l0.289,0.026l0.113,0.245
					l28.776,62.241l-0.097-0.131l11.426,9.406c3.819,3.126,7.569,6.328,11.444,9.387l23.228,18.399l46.466,36.796
					C336.227,159.214,334.749,159.382,333.324,159.546z"/>
			</g>
			<path style="fill:#CCCBC1;" d="M170.376,116.746c19.188,25.078,64.217,68.777,64.217,68.777s0,0-63.214-14.484
				c0,0-39.582-30.23-53.672-49.927C102.902,72.731,90.395,28.64,90.395,28.64l42.423,3.016
				C132.817,31.655,151.19,91.672,170.376,116.746z"/>
			<path style="fill:#CCCBC1;" d="M244.675,84.832c0,0,24.703,21.09,92.838,73.689c-9.706,5.48-67.25-10.941-67.25-10.941
				s-20.565-16.068-42.346-37.703c-21.783-21.635-44.687-54.481-53.671-93.648c19.926,4.904,41.572,6.399,41.572,6.399
				L244.675,84.832z"/>
			<g>
				<g>
					<path style="fill:#CCCBC1;" d="M86.812,119.748c0,0,2.1,0.212,5.784,0.492c3.685,0.26,8.952,0.643,15.292,0.885
						c3.171,0.133,6.606,0.226,10.243,0.309c3.638,0.06,7.479,0.133,11.449,0.057c1.989-0.006,4.01-0.063,6.055-0.129
						c2.046-0.051,4.116-0.113,6.203-0.236c4.178-0.188,8.421-0.493,12.658-0.934c4.23-0.478,8.463-1.072,12.584-1.991
						c1.029-0.235,2.056-0.467,3.075-0.699c1.044-0.257,1.998-0.569,2.993-0.848c1.968-0.575,3.91-1.144,5.822-1.7
						c3.818-1.152,7.467-2.48,10.923-3.68c3.41-1.334,6.67-2.49,9.607-3.739c2.951-1.217,5.648-2.348,7.992-3.45
						c2.364-1.058,4.403-2.029,6.071-2.846c1.684-0.795,2.966-1.492,3.854-1.941c0.881-0.466,1.349-0.71,1.349-0.71
						s-1.92,0.909-5.326,2.388c-1.7,0.751-3.772,1.637-6.174,2.6c-2.384,1.004-5.12,2.02-8.081,3.178
						c-2.956,1.178-6.235,2.25-9.659,3.495c-3.468,1.109-7.1,2.312-10.909,3.46c-1.916,0.541-3.865,1.091-5.836,1.65
						c-0.981,0.267-1.992,0.589-2.963,0.813c-1.002,0.22-2.009,0.44-3.021,0.661c-4.048,0.871-8.241,1.424-12.437,1.87
						c-4.193,0.467-8.408,0.807-12.563,1.026c-2.074,0.139-4.137,0.219-6.174,0.287c-2.037,0.079-4.052,0.149-6.031,0.174
						c-7.92,0.167-15.32,0.213-21.657,0.095c-6.336-0.108-11.62-0.197-15.315-0.332C88.923,119.821,86.812,119.748,86.812,119.748z"
						/>
				</g>
			</g>
			<g style="opacity:0.5;">
				<path style="fill:#CCCBC1;" d="M124.438,117.074c8.252,1.965,39.422,3.945,39.422,3.945s-10.533,3.556-36.269,5.616
					c12.946,10.732,40.435,40.079,51.011,42.716c5.546,1.385,22.099,6.846,36.589,11.727c-9.36-2.143-23.217-5.318-43.813-10.039
					c-18.697,15.186-43.119,42.884-48.986,49.635c4.878-11.016,14.971-27.229,34.841-50.889
					c-28.735-23.113-40.956-41.056-63.401-47.523c-16.504-3.935-16.504-3.935-16.504-3.935s18.265-2.563,26.762-2.587
					c8.496-0.024,2.768-9.504-0.964-28.705c-2.718-13.976-11.248-42.046-15.697-56.308l2.865-2.016
					C97.451,51.857,117.692,115.466,124.438,117.074z"/>
			</g>
		</g>
		<g style="opacity:0.6;">
			<path style="fill:#338B7D;" d="M219.166,48.817c-0.483-0.511-0.831-0.988-1.01-1.64c-1.792-0.313-3.602-0.504-5.388-0.565
				c-0.216-0.009-0.334-0.189-0.259-0.39c0.123-0.321,0.195-0.639,0.231-0.947c-1.774,0.189-2.179,0.59-3.193,0.287
				c0.286-0.611,0.754-1.146,1.544-1.805c0.362-0.305,0.711-0.67,1.04-1.065c-1.329-2.202-4.451-3.772-6.667-4.102
				c-1.696-0.251-3.493-0.001-5.05,0.717c-0.895,0.411-1.732,0.64-2.715,0.374c-4.477-1.209-7.587-4.824-11.523-7.019
				c-1.091-0.606-2.188-1.039-3.297-1.343c-0.077,0.034-0.151,0.063-0.226,0.112c-0.119,0.084-0.261,0.177-0.39,0.261
				c-1.479,0.338-2.954,0.714-4.311,1.273c-0.064-0.149-0.136-0.303-0.271-0.431c-0.232-0.226-0.469-0.454-0.709-0.686
				c-0.27-0.26-0.708-0.353-1.063-0.219c-1.883,0.67-7.495,3.808-9.563,3.589c-0.652-0.07-1.19-0.001-1.684,0.133
				c0.046-0.627-0.07-1.254-0.671-1.816c-0.954-0.896-2.176-0.045-2.958,0.854c-0.521,0.089-1.024,0.225-1.48,0.124
				c-1.72-0.385-3.263-0.513-4.846,0.335c-0.118,0.062-0.223,0.199-0.316,0.342c-0.275,0.127-0.5,0.385-0.469,0.687
				c0.111,1.002,0.688,1.479,1.42,2.151c0.505,0.469,0.891,0.31,0.765,0.979c-0.08,0.402,0.007,0.735,0.167,1.056
				c-1.385,0.842-2.666,1.836-3.947,2.78c-2.671,1.75-6.123,1.171-9.002,3.017c-1.871,1.202-3.475,2.64-4.181,4.375
				c-1.307,0.057-2.021,0.594-3.097,1.921c-0.89,1.094-0.362,2.149,0.15,3.203c-0.16,0.264-0.271,0.574-0.354,0.921
				c-0.316-0.555-0.635-1.057-0.928-1.388c-0.04-0.049-0.108-0.037-0.153-0.063c-0.035-0.171-0.024-0.351-0.077-0.513
				c-0.074-0.234-0.215-0.435-0.484-0.445c-3.054-0.092-3.98,0.695-4.793,2.272c-1.009-0.229-2.119-0.134-2.893,0.349
				c-1.563,0.979-2.941,2.404-4.363,3.77c-0.628,0.33-1.137,0.702-1.431,1.148c-0.018,0.037-0.024,0.103-0.042,0.148
				c-0.947,0.812-1.939,1.51-3.039,1.991c-0.2-0.026-0.39,0.001-0.597-0.05c-1.858-0.726-4.35,2.107-5.659,2.929
				c-0.146,0.097-0.278,0.266-0.41,0.397c-1.686-0.247-3.563,0.482-5.085,1.313c-1.397,0.757-1.738,1.234-2.714,2.54
				c-0.696,0.934-1.304,1.583-1.906,2.147c0.174-0.673,0.19-1.407,0.142-1.967c-0.041-0.437-0.237-1.041-0.798-1.01
				c-3.302,0.171-6.857,3.127-10.112,2.114c-2.039-0.631-4.495-0.639-5.951,1.202c-2.739,3.48-7.983,4.961-10.39,8.602
				c-0.683,1.033-1.293,6.307-2.928,6.639c-2.915,0.586-4.037,3.866-2.061,5.604c-0.09,0.518,0.131,0.915,1.028,0.937
				c1.047,0.024,1.935-1.714,2.713-2.035c0.46-0.185,0.935-0.127,1.407-0.119c1.938,1.109,3.724,4.221,6.734,1.225
				c2.199-2.197,1.65-4.894,1.456-7.564c-0.026-0.295-0.123-0.791-0.49-0.871c-4.589-1.015,0.834-1.906,1.682-2.028
				c0.008-0.001,0.011-0.001,0.018-0.003c-0.006,0-0.008,0.002-0.015,0.002c0.713-0.107,1.281-0.548,1.533-1.245
				c0.843-2.317,0.265,0.743-0.354,1.805c-0.42,0.717-0.316,1.479-0.34,2.3c-0.003,0.285,0.149,0.784,0.48,0.854
				c1.41,0.294,2.511,0.586,3.795-0.449c0.532-0.425,0.969-0.691,1.321-0.835c-0.047,0.194-0.033,0.397,0.116,0.542
				c0.027,0.022,0.055,0.052,0.085,0.079c-0.255,0.161-0.554,0.331-0.982,0.508c-0.504,0.213-0.685,0.571-0.942,1.043
				c-0.274,0.511-0.425,1.144,0.002,1.623c2.521,2.81,0.007,1.42-1.707,0.783c-0.513-0.194-0.94,0.285-1.124,0.704
				c-0.489,1.064-1.513,4.136-3.256,3.332c-0.388-0.174-0.937,0.042-1.192,0.35c-0.848,1.158-2.018,1.944-3.499,2.354
				c0.191-0.3,0.35-1.277-0.292-1.22c-1.465,0.124-2.683,0.021-3.117-1.637c-0.042-0.15-0.157-0.23-0.313-0.196
				c-3.847,0.898,0.343,5.463-2.691,5.696c-0.177,0.016-0.272,0.161-0.373,0.304c-0.174-0.016-0.314-0.07-0.48-0.098
				c-0.054-0.015-0.115-0.023-0.183-0.031c-0.398-0.072-0.847-0.111-1.172-0.238c-1.659-0.604-3.557-0.459-5.002-1.678
				c-0.646-0.541-1.346-1.074-2.214-1.191c-3.149-0.407-6.146,0.073-5.06,4.19c0.037,0.145,0.146,0.129,0.247,0.161
				c-0.045,0.228-0.112,0.451-0.074,0.686c-1.172,0.827-1.993,1.914-2.176,3.361c-0.36,2.896,2.888,2.33,3.561,0.195
				c0.11-0.34,0.023-0.908-0.27-1.075c0.587-0.351,1.154-0.667,1.322-0.601c0.859,0.353,1.713-0.033,1.615,0.894
				c-0.052,0.583-0.01,1.178,0.575,1.475c1.491,0.76,2.684-0.366,3.181-1.748c0.758,0.443,1.233,1.27,2.259,1.185
				c0.222-0.021,0.428-0.141,0.619-0.262c-0.093,2.661-2.646,1.609-4.602,4.56c-0.094,0.138-0.114,0.329,0.002,0.465
				c0.696,0.82,2.299,1.357,2.977,2.024c-1.856,0.848-3.929-0.216-5.722,2.239c-0.963,1.323-1.588,2.44-1.17,4.167
				c0.4,1.691,3.326,1.635,3.283,3.602c-0.016,0.357,0.197,0.688,0.568,0.719c2.269,0.215,4.281-1.918,6.38-2.555
				c1.211-0.366,2.794-1.581,2.658-3.082c-0.041-0.463-0.13-0.916-0.197-1.379c0.017-0.05,0.042-0.095,0.065-0.151
				c0.264,0.105,0.532-0.017,0.691-0.253c1.235-1.774,2.593-3.391,3.776-5.159c0.181,0.085,0.358,0.181,0.547,0.263
				c0.369,0.152,0.712-0.059,0.991-0.293c0.756-0.635,1.623-2.057,1.296-2.416c0.726,0.808,2.679,1.385,3.695,1.717
				c0.913,0.301,2.358-0.354,2.931,0.674c0.193,0.349,0.369,0.685,0.531,0.97c-0.134,0.117-0.373,0.306-0.904,0.903
				c-0.235,0.261-0.339,0.605-0.195,0.94c0.056,0.136,0.119,0.272,0.177,0.411c0.082,0.188,0.282,0.218,0.457,0.188
				c2.019-0.367,2.954-1.836,2.989-3.449c0.162,0.063,0.356,0.091,0.456,0.205c0.002,0.007,0.005,0,0.016,0.001
				c0.029,0.025,0.054,0.045,0.089,0.066c0-0.012,0.002-0.02,0.01-0.029c0.398,0.218,0.848-0.605,0.645-0.971
				c-0.427-0.777-1.147-1.036-1.776-1.662c-0.765-0.752-0.625-1.034-1.571-1.091c-0.085-0.007-0.138,0.111-0.219,0.163
				c-0.685-0.263-1.38-0.523-1.67-0.809c-0.086-0.088-0.166-0.105-0.25-0.177c0.604-0.163,1.215-0.314,1.895-0.278
				c1.872,0.109,1.827,1.896,3.158,2.555c0.756,0.381,2.05-0.778,2.628-1.071c0.18-0.089,0.257-0.195,0.354-0.309
				c0.045,2.155,1.493,4.58,3.419,1.847c0.518-0.728,0.832-1.28,0.917-1.894c0.089,0.042,0.184,0.085,0.307,0.07
				c0.105-0.013,0.216-0.021,0.317-0.035c0.164,0.107,0.34,0.194,0.493,0.364c0.361,0.407,0.729,0.8,1.359,0.607
				c0.421-0.127,0.72-0.205,0.998-0.217c0.038,0.156,0.059,0.327,0.176,0.411c0.389,0.259,0.848,0.383,1.34,0.446
				c0.209,0.094,0.434,0.143,0.663,0.076c0.031-0.012,0.049-0.044,0.083-0.057c0.923-0.028,1.927-0.301,2.864-0.649
				c1.39,0.34,4.324,0.44,4.82,1.383c0.116,0.224,0.339,0.36,0.577,0.487c-1.108,1.548-5.702,2.876-7.124,3.764
				c-3.292,2.062-5.845-0.507-8.563,2.418c-0.72,0.768-0.951,1.218-0.999,1.458c-0.272-0.221-1.12-0.532-3.528-0.582
				c-1.916-0.047-7.019,3.837-6.673-0.329c0.016-0.209-0.102-0.384-0.275-0.482c-0.459-0.285-0.922-0.563-1.376-0.852
				c-0.118-0.074-0.297-0.009-0.399,0.054c-5.215,3.114-14.729,4.587-15.663,10.36c-1.448,1.906-3.354,4.236-2.776,6.623
				c0.156,0.659,0.326,0.982,0.489,1.188c-0.266,0.135-0.6,0.361-1.121,0.878c-0.893,0.894-1.854,2.724-1.928,3.998
				c-0.118,1.896,0.021,3.257,1.57,4.708c0.313,0.292-1.041,1.766-1.289,2.378c-0.326,0.81,0.118,1.817,0.705,2.397
				c1.811,1.792,2.036,4.311,3.779,6.095c0.195,0.197,0.492,0.225,0.747,0.157c0.411-0.116,0.765-0.256,1.089-0.402
				c0.381,0.588,0.846,1.01,1.615,1.231c0.383,0.105,0.74,0.049,1.076-0.099c0.359,1.967,2.924,2.188,4.779,1.796
				c0.352,0.734,0.995,1.264,2.115,1.286c2.509,0.062,5.891-4.282,7.844-3.646c1.64,0.533,3.159-0.473,4.047-1.816
				c0.103-0.154,0.184-0.354,0.285-0.537c0.885,0.133,1.92-0.369,2.829-0.608c0.459-0.118,0.758-0.187,1.084-0.26
				c0.896,0.438,1.728,0.917,2.479,1.391c-0.126,0.678-0.13,1.364,0.213,1.858c0.93,1.331-0.429,3.315,1.013,4.674
				c1.245,1.171,2.771,0.823,4.174,0.249c-0.063,0.764,0.054,1.654,0.408,2.256c0.341,0.583,4.032,2.907,3.978,2.267
				c0.083,0.977,0.313,1.731,0.673,2.339c-0.577,1.528-1.451,3.151-0.828,4.295c1.342,2.467,0.683,0.724,0.781,3.639
				c0.08,2.486,1.085,3.359,3.508,4.182c0.008,0.002,0.011-0.006,0.021-0.001c0.401,0.455,0.862,0.936,1.391,1.439
				c1.314,1.282,3.688,2.402,5.38,4.456c1.055,1.288,2.187,5.29,4.91,3.791c0.945-0.517,1.678,0.604,2.581,0.011
				c2.017-1.336,2.32-4.44,4.925-5.061c3.015-0.725,5.753-11.028,5.28-13.734c-0.086-0.521-0.502-0.874-1.007-0.925
				c-4.062-0.408-1.451-3.35,0.452-5.38c2.573-2.738-0.107-10.503-0.896-9.814c0.514-0.443,0.717-1.27,0.583-1.92
				c-0.436-2.048-3.85-3.806-2.485-5.471c0.809-0.983,2.044-1.645,1.746-3.114c-0.641-3.045,1.899-3.32,2.919-5.818
				c1.333-3.254-0.278-6.597,0.458-9.74c0.175-0.74-0.296-1.946-1.257-1.587c-0.662,0.248-1.311,0.34-1.963,0.486
				c0.018-0.051,0.07-0.084,0.075-0.142c0.299-2.733,1.15-3.423,3.251-5.024c2.982-2.248,4.601-6.227,4.125-9.805
				c-0.606-4.475-7.173,0.021-9.121-1.384c-1.552-1.116-2.752-2.417-0.073-2.053c1.468,0.197,4.895-2.15,4.779,0.46
				c-0.019,0.271,0.122,0.561,0.373,0.676c1.279,0.576,6.049-1.372,8.622-2.074c2.5,0.543,5.069,1.33,7.27,2.359
				c0.043,0.027,0.073-0.007,0.119-0.001c0.354,1.231,1.059,2.159,2.624,1.184c1.135-0.709,2.171-2.615,2.477-3.858
				c-0.115,0.465,0.611,0.926-0.115,1.781c-0.208,0.237-0.364,0.484-0.422,0.803c-0.733,3.879,4.238,2.523,3.647,6.445
				c-0.438,2.941,3.642,4.938,5.968,4.021c0.518-0.202,0.854-0.757,0.85-1.318c-0.03-1.324-1.896-5.77-1.258-5.832
				c0.733-0.066,1.342-1.001,1.389-1.688c0.07-0.996,0.017-1.505-0.392-2.493c-0.797-1.961-0.305,0.094,1.423-1.346
				c0.957-0.799,1.881-1.521,2.42-2.705c0.664-1.447,1.215-5.148,3.084-5.626c0.396,0.528,0.784,1.049,1.069,1.555
				c-0.361,0.767-0.324,1.765,0.566,1.872c0.975,0.077,1.939,0.162,2.888,0.378c0.202,0.042,0.389,0.015,0.564-0.062
				c0.004,0.01,0.004,0.01,0.008,0.021c0.05,0.222,0.153,0.41,0.31,0.567c0.128,0.212,0.216,0.343,0.309,0.476
				c-0.28,0.663-0.342,1.262,0.103,1.984c0.117,0.201,0.337,0.409,0.601,0.385c1.441-0.131,1.981-0.768,2.764-2.003
				c0.581-0.925,0.157-1.471,1.734-0.424c-0.18-0.12-0.305,1.166-0.287,1.277c0.026,0.187,0.064,1.068,0.381,1.289
				c0.304,0.216,0.614,0.429,0.93,0.628c0.108,0.099,0.183,0.133,0.271,0.199c-0.405,0.942-0.174,2.037,0.14,2.978
				c0.093,0.257,0.249,0.36,0.476,0.432c0.043,0.054,0.064,0.124,0.11,0.17c0.198,0.221,0.362,0.429,0.521,0.643
				c0.101,0.41,0.235,0.921,0.932,1.339c0,0,0.009,0.004,0.01,0.008c0.419,0.56,0.872,0.889,1.646,0.795
				c0.597,0.285,1.156,0.622,1.49,1.165c-0.031-0.056,0.557,1.194,0.99,1.45c1.063,0.631,2.022,0.858,3.205,0.51
				c0.412-0.119,0.808-0.948,0.383-1.268c-1.071-0.789-2.005-1.467-2.016-2.914c-0.005-0.181-0.059-0.371-0.191-0.502
				c-1.17-1.126-3.268,0.133-4.093-1.345c-0.219-0.391-1.324-2.57-1.173-2.797c0.307-0.46,0.767-1.231,0.923-1.846
				c0.012-0.033,0.017-0.134,0.027-0.196c0.905,0.824,2.061,1.398,3.265,1.617c0.783,0.149,1.466,0.931,2.198,0.207
				c1.066-1.062,1.417-2.518,1.675-3.938c0.063,0.001,0.11,0.002,0.21-0.013c0.323-0.064,0.51-0.496,0.514-0.79
				c-0.003-2.476-2.676-4.537-5.152-3.783c-0.168-0.305-0.341-0.607-0.508-0.911c0.105-0.162,0.209-0.316,0.321-0.472
				c0.278-0.354,0.546-0.726,0.952-0.96c0.429-0.347,0.626-0.693,0.786-1.221c0.024-0.084,0.008-0.144,0.022-0.229
				c0.451-0.733,0.839-1.513,1.441-2.069c0.948-0.864,1.871-1.568,2.69-2.333c0.319-0.088,0.605-0.162,0.709-0.21
				c1.313-0.591,2.654-2.333,3.636-3.316c3.314-3.297,0.607-6.457,0.708-9.982c0.063-1.853-1.081-1.939-2.417-1.532
				c-0.071-0.386-0.318-0.718-0.756-0.604c-0.097,0.024-0.161,0.104-0.239,0.156c0.022-0.074,0.099-0.135,0.121-0.217
				c0.099-0.338,0.162-0.677,0.236-1.022c0.571-0.645,0.845-1.473,0.831-2.31c0.309-0.49,0.707-0.938,1.373-1.24
				c0.584-0.271,1.274-0.129,1.937,0.003c-0.002,0.034-0.013,0.067-0.011,0.1c0.073,1.206,0.839,1.309,1.481,1.895
				c0,0.027-0.008,0.065-0.008,0.097c-0.048,0.94,0.893,1.713,1.739,1.104c0.139-0.096,0.216-0.193,0.336-0.284l-0.007,0.026
				c0.022-0.022,0.039-0.058,0.061-0.087c2.024-1.763,1.134-3.788,0.436-5.96c0.267-0.644,0.51-1.278,0.55-2.045
				c0.029-0.492-0.049-0.915-0.168-1.321c0.341-0.173,0.634-0.309,0.684-0.312c0.557-0.026,0.967,0.145,1.485-0.18
				c0.763-0.482,1.294-1.765,0.94-2.608c-0.393-0.937,0.768-1.093,1.08-1.632c0.303-0.531,0.438-0.933,0.509-1.416
				c0.826-0.55,1.67-1.322,1.839-2.361c0.233-1.439,0.302-2.863,0.352-4.293c0.119-0.211,0.27-0.393,0.367-0.642
				c0.104-0.258,0.073-0.494-0.002-0.692c0.09-0.279,0.121-0.599,0.169-0.911c0.024,0.011,0.05,0.016,0.076,0.024
				c0.031,0.195,0.069,0.393,0.167,0.569c0.084,0.151,0.205,0.256,0.336,0.34c0.055,1.075,0.01,2.316,0.285,2.961
				c0.041,0.106,0.12,0.149,0.2,0.211c0.042,0.11,0.089,0.126,0.199,0.105c0.364,0.071,0.835-0.181,0.998-0.491
				C218.443,51.424,219.97,49.694,219.166,48.817z M109.067,99.145c-2.51,0.326-4.381,2.855-6.839,3.001
				c-0.544-2.334-2.614,0.331,0.159-2.421c2.094-2.092,4.17-5.463,8.168-2.316C112.285,98.775,115.084,98.362,109.067,99.145z
				 M111.085,114.188c0.106-0.146,0.174-0.34,0.27-0.514c1.949,1.315,7.007,5.479,7.737,5.966c0.324,0.213,0.749,0.433,1.201,0.632
				c0.788,0.926,2.064,1.81,2.479,2.148c0.803,0.647,1.142,0.831,2.238,0.835c1.018-0.008,0.871,2.125,1.092,2.704
				c0.012,0.027,0.032,0.04,0.043,0.071C120.029,124.783,114.727,119.997,111.085,114.188z"/>
			<path style="fill:#338B7D;" d="M144.868,151.708c-1.13-0.293-1.963,1.126-1.709,2.12c0.025,0.106,0.081,0.139,0.113,0.223
				c-0.177,1.051-0.544,2.098-1.579,2.483c-0.717,0.269-1.593,0.718-2.023,1.38c-0.853,1.295,0.063,2.771,0.815,3.838
				c0.636,0.896,0.542,1.91,0.786,2.914c0.378,0.943,0.537,1.935,0.49,2.982c-0.021,0.128-0.241,1.104-0.12,1.436
				c0.45,1.295,1.845,2.755,3.471,2.262c1.157-0.342,1.593-1.79,1.793-2.826c0.229-1.137,0.049-2.268-0.116-3.385
				c-0.277-1.865-1.145-2.849,0.307-4.36C149.899,157.87,148.914,152.749,144.868,151.708z"/>
			<path style="fill:#338B7D;" d="M169.666,115.147c-2.013,0.617-2.448,3.44-1.395,4.984c0.121,0.179,0.321,0.346,0.542,0.422
				c0.014,0.02,0.019,0.049,0.032,0.067c0.977,1.398,2.343-1.218,2.453-1.963C171.457,117.611,171.557,114.58,169.666,115.147z"/>
			<path style="fill:#338B7D;" d="M215.555,120.291c-2.298-0.078-4.494,1.604-6.639,2.375c-2.136,0.77-3.828-0.982-5.865-0.215
				c-0.563,0.219-0.832,0.69-1.003,1.209c-0.651-1.504-1.508-1.346-3.292-1.359c-0.186-0.004,0.258-0.735,0.245-1.109
				c-0.002-0.641-0.307-1.047-0.786-1.388c-0.209-0.149-2.161-0.961-2.167-1.05c-0.058-0.627-0.397-1.064-0.785-1.531
				c-1.087-1.285-3.016-0.959-4.087,0.044c-0.182,0.165-0.288,0.45-0.354,0.742c-0.215-0.047-0.39-0.134-0.439-0.357
				c-0.494-1.946-2.168-2.739-3.999-1.89c-0.192,0.095-0.273,0.481-0.054,0.581c0.019,0.021,0.046,0.03,0.065,0.038
				c0.007,0.003,0.015-0.011,0.023-0.014c1.3,0.336,2.611,0.598,2.713,2.363c0.012,0.281,0.174,0.678,0.459,0.792
				c0.291,0.122,0.708,0.118,1.138,0.11c0.321,0.861,0.736,1.426,1.354,2.111c0.767,0.857,1.178,2.025,2.163,2.613
				c0.325,0.199,1.218,0.049,1.518,0.023c1.02-0.068,1.121-0.072,2.114,0.311c0.864,0.344,1.582,0.516,2.461,0.163
				c0.105-0.044,0.206-0.132,0.31-0.233c0.195,0.092,0.355,0.212,0.446,0.384c0.28,0.421,0.65,0.257,0.91-0.064
				c0.136,0.247,0.343,0.45,0.642,0.48c1.322,0.154,2.976,0.454,3.866-0.866c0.51-0.758,3.8-1.85,4.76-2.211
				c1.362-0.504,2.796-0.981,4.22-1.356C215.759,120.922,215.927,120.306,215.555,120.291z"/>
			<path style="fill:#338B7D;" d="M207.888,105.356c-1.496-0.197-2.232,0.742-2.677,2.091c-0.027,0.09-0.022,0.165-0.05,0.257
				c-0.905,0.444-1.449,1.661-1.541,2.671c-0.065,0.666-1.206,0.521-1.847,1.368c-0.603,0.779-1.176,1.677-0.998,2.704
				c0.13,0.713,0.459,1.092,0.989,1.571c1.007,0.911,0.845,0.392,0.741,1.591c-0.096,0.966,1.77,1.773,2.508,1.277
				c0.44-0.303,0.756-0.571,0.979-1.067c0.221-0.136,0.426-0.274,0.619-0.456c0.629-0.004,1.495,0.693,2.051,0.802
				c1.29,0.259,2.33-0.608,2.42-1.951c0.055-0.729-0.03-1.237-0.452-1.843c-0.052-0.084-0.164-0.063-0.237-0.124
				c0.727-0.565,1.23-1.494,1.129-2.388c-0.151-1.255-0.488-2.572-0.779-3.809C210.48,106.968,209.016,105.504,207.888,105.356z"/>
			<path style="fill:#338B7D;" d="M204.986,84.875c-0.199-0.148-0.393-0.14-0.565-0.075c-0.034-0.093-0.03-0.193-0.067-0.288
				c-0.051-0.12-0.178,0.037-0.174,0.107c-0.041,0.148-0.083,0.293-0.122,0.439c-0.162,0.178-0.289,0.399-0.339,0.608
				c-0.051,0.214-0.025,0.394-0.018,0.58c-0.002,0.008,0,0.016-0.001,0.029c0.01,0.085-0.026,0.173-0.008,0.278
				c0.014-0.004,0.024-0.018,0.036-0.022c0.061,0.284,0.258,0.487,0.605,0.286c0.044-0.032,0.061-0.066,0.094-0.096
				c0.453,0.084,0.845-0.56,0.933-0.897C205.461,85.43,205.294,85.116,204.986,84.875z"/>
			<path style="fill:#338B7D;" d="M125.35,50.666c-0.428,0.445-0.805,0.904-1.197,1.35c-1.517,0.513-3.312,1.463-4.13,2.9
				c-0.527,0.21-1.033,0.455-1.323,0.896c-0.375,0.563-0.443,0.682-0.67,1.303c-0.337,0.925-1.112,0.959-1.806,1.551
				c-0.833,0.708-1.319,1.193-1.408,2.297c-0.026,0.313,0.193,0.598,0.499,0.637c0.716,0.077,1.349,0.056,2.002,0.062
				c0.531,0.078,1.06,0.069,1.577-0.19c0.52-0.264,0.746-2.199,1.178-2.156c0.63,0.062,1.171-0.61,1.37-1.11
				c0.174-0.43,0.363-0.843,0.365-1.311c-0.001-0.801,0.297-1.391,0.746-1.874c0.154-0.125,0.288-0.231,0.422-0.362
				c0.406-0.334,0.854-0.633,1.335-0.914c0.891-0.523,2.112-0.826,2.548-1.89C127.335,50.697,126.304,49.668,125.35,50.666z"/>
			<path style="fill:#338B7D;" d="M81.09,111.407c0.064-0.251,0.087-0.507,0.01-0.893c-0.022-0.108-0.145-0.125-0.215-0.199
				c0.009-0.041,0.042-0.096-0.007-0.093c-0.063,0.006-0.085-0.029-0.133-0.039c-0.064-0.034-0.085-0.139-0.162-0.149
				c-0.322-0.021-0.649-0.036-0.972-0.052c0.006,0.014,0.01,0.022,0.014,0.03c-0.069,0.016-0.108-0.044-0.189-0.003
				c-0.611,0.271-1.114,1.564-0.166,1.715c0.156,0.029,0.243-0.01,0.318-0.047c-0.054,0.104-0.104,0.227-0.158,0.504
				c-0.087,0.446,0.07,0.908,0.559,0.984c0.792,0.115,0.678,0.124,1.431-0.208c0.362-0.157,0.59-0.671,0.308-1
				C81.394,111.583,81.311,111.482,81.09,111.407z"/>
			<path style="fill:#338B7D;" d="M258.816,121.074c-1.189-0.349-1.757-0.262-2.571-1.314c-1.036-1.333-3.507-1.065-4.858-2.075
				c-2.487-1.871-4.933-2.352-7.743-2.747c-0.402-0.302-0.906-0.525-1.356-0.362c-0.173,0.064-0.34,0.216-0.51,0.32
				c-0.193-0.022-0.348-0.054-0.578-0.064c-0.199-0.013-0.369,0.095-0.519,0.232c-0.378,0.084-0.711,0.351-0.837,0.695
				c-0.245,0.684-0.449,1.314-0.475,2.056c-0.078,1.701-1.215,2.056-2.388,2.995c-0.255,0.2-0.468,0.424-0.68,0.655
				c-0.102-0.391,0.06-1.055,0.087-1.386c0.07-1.015,0.218-1.734-0.736-2.287c-1.351-0.763-5.814,0.947-6.448,2.497
				c-0.082,0.192-0.108,0.515-0.132,0.821c-0.188,0.157-0.383,0.294-0.558,0.47c-0.222,0.195-0.4,0.438-0.605,0.647
				c-0.169-0.218-0.423-0.384-0.684-0.381c-2.969,0.014-3.596,2.912-4.49,5.233c-1.687,1.083-3.352,4.701-3.81,5.604
				c-0.276,0.536-0.592,0.904-0.943,1.244c-0.521,0.229-1,0.485-1.418,0.77c-0.16,0.051-0.262,0.161-0.441,0.188
				c-0.597,0.104-1.24,0.9-1.449,1.424c-0.42,1.018-0.277,1.85,0.235,2.507c0.074,0.361,0.165,0.714,0.321,1.114
				c0.667,1.681,7.188,5.875,6.11,7.392c-0.961,1.361,0.315,2.356,1.653,2.467c0.035,0.329,0.186,0.624,0.58,0.536
				c2.124-0.492,6.47-0.851,6.438-4.036c-0.004-0.007-0.004-0.007-0.006-0.015c0.197-0.109,0.522-0.315,1.039-0.693
				c1.173-0.865,2.55-1.514,3.754-2.344c0.552-0.38,1.155-0.649,1.738-0.961c1.163-0.184,2.246-0.113,3.136,0.434
				c0.629,0.391,1.692,0.461,2.811,0.482c0.143,0.086,0.276,0.17,0.417,0.259c0.289,0.175,0.73,0.019,0.986-0.137
				c0.041-0.028,0.055-0.058,0.09-0.085c0.934,0.003,1.832,0.028,2.463,0.225c1.116,0.348,2.404,0.265,3.656,0.246
				c0.041,0.342,0.208,0.629,0.512,0.814c0.934,0.584,2.502,0.552,3.354-0.303c0.482-0.484,1.027-1.09,1.158-1.791
				c0.332-1.683-0.418-1.112,1.139-1.075c4.438,0.103,2.875-10.474,2.776-12.558c-0.071-1.446,0.122-2.306-1.164-3.061
				c-0.367-0.214-0.721-0.345-1.065-0.458c-0.758-1.085,0.852-1.198,1.759-1.639C259.288,123.283,259.883,121.389,258.816,121.074z"
				/>
			<path style="fill:#338B7D;" d="M249.038,103.083c-0.722,0.332-1.191,1.093-1.953,1.245c-1.298,0.266-1.661,1.22-2.478,2.156
				c-0.152-0.035-0.296-0.07-0.31-0.135c-0.702-2.387-5.069-1.452-6.744-1.421c-3.27,0.057-5.075-0.829-6.766,2.682
				c-0.357,0.753-0.308,0.571-1.067,0.682c0.031-0.129,0.02-0.278-0.137-0.308c-0.931-0.159-0.613-2.323-2.042-1.892
				c-0.359,0.116-0.721,0.368-1.007,0.662c-0.017,0.01-0.014,0.016-0.032,0.026c-0.069,0.082-0.17,0.146-0.227,0.237
				c-0.325,0.531-0.541,0.134-0.958-0.101c-0.447-0.242-0.786,0.554-0.701,0.872c0.168,0.665,0.458,1.127,0.826,1.318
				c0.003,0.194,0.056,0.369,0.255,0.435c0.8,0.297,1.489,1.917,2.327,1.935c0.837,0.02,2.273-0.243,2.917-0.854
				c0.458-0.432,2.85,0.326,3.518,0.5c0.441,0.105,0.774,0.047,1.125,0.02c-0.136,0.531-0.101,1.094,0.23,1.693
				c0.75,1.373,2.29,0.434,3.399-0.104c0.415,0.086,0.874,0.012,1.271-0.442c0.816-0.922,1.722-1.628,2.739-2.334
				c2.173-1.519,3.219,1.374,4.865,1.726c0.838,0.18,1.802-1.328,0.984-1.873c-1.107-0.74-1.177-2.049-2.13-2.939
				c1.393-0.379,2.355-0.992,2.92-3.033C250.016,103.268,249.561,102.835,249.038,103.083z"/>
			<path style="fill:#338B7D;" d="M217.324,108.267c-1.3,1.458-4.141,0.337-4.64,2.894c-0.086,0.442,0.002,0.803,0.184,1.099
				c-0.092,0.261-0.079,0.523-0.001,0.788c-0.242,0.42-0.26,1.029,0.195,1.271c0.188,0.104,0.34,0.104,0.495,0.08
				c0.039,0.055,0.012,0.152,0.072,0.193c0.258,0.18,0.395,0.385,0.503,0.604c0.024,0.035,0.042,0.07,0.074,0.104
				c0.292,0.736,0.023,1.619,0.575,2.387c0.34,0.481,0.947,0.33,1.22-0.154c0.424-0.721,0.473-1.301,0.273-2.102
				c0.988,1,2.738,0.413,2.71-1.144c-0.042-2.153-1.849-2.229-3.54-2.751c-1.753-0.545,0.64-0.717,1.313-1.237
				c0.658-0.504,0.934-0.854,1.112-1.679C217.947,108.275,217.602,107.945,217.324,108.267z"/>
			<path style="fill:#338B7D;" d="M285.691,133.743c-0.93,0.818-1.561,2.543-2.77,2.85c-1.101,0.276-1.129,1.675-1.927,2.038
				c-0.482,0.227-0.83,1.096-0.657,1.656c-0.151,0.154-0.261,0.359-0.332,0.583c-0.004,0.019-0.017,0.032-0.023,0.05
				c-0.152,0.53-0.037,1.091,0.458,1.196c0.057,0.024,0.11,0.007,0.167,0.015c0.055-0.001,0.081,0.023,0.147,0.01
				c1.598-0.251,2.623,0.357,3.643-1.221c0.476-0.736,0.647-1.716,0.874-2.547c0.374-1.383,0.958-2.68,1.283-4.084
				C286.693,133.696,286.154,133.334,285.691,133.743z"/>
			<path style="fill:#338B7D;" d="M289.574,128.934c-0.603-0.564-1.567-0.053-2.23-0.016c-1.063,0.061-1.823-1.63-3.031-1.707
				c-0.724-0.053-0.973,1.038-0.614,1.506c0.925,1.191,1.032,2.768,1.995,3.986c0.674,0.842,1.417-0.109,1.812,0.551
				c0.294,0.491,0.935,0.285,1.179-0.156c0.059-0.103,0.114-0.235,0.161-0.364c0.101-0.095,0.204-0.183,0.26-0.346
				c0.028-0.089,0.022-0.159,0.05-0.245c0.008,0.003,0.02,0,0.022,0c0.054-0.484,0.817-0.986,0.934-1.574
				C290.226,129.983,289.999,129.336,289.574,128.934z"/>
			<path style="fill:#338B7D;" d="M259.478,143.781c-0.102-0.181-0.306-0.331-0.519-0.325c-0.82,0.036-1.2,0.48-1.849,0.929
				c-0.102,0.072-0.179,0.189-0.261,0.285c-0.44,0.144-0.826,0.347-1.093,0.967c-0.298,0.7,0.518,1.5,1.097,1.733
				C259.536,148.466,260.68,146.092,259.478,143.781z"/>
			<path style="fill:#338B7D;" d="M224.332,116.895c-2.053-0.041-5.304,0.92-4.646,3.638c0.359,1.505,1.418,1.021,2.196,0.12
				c0.923-0.613,1.873-1.225,2.658-1.979C224.965,118.266,225.244,116.916,224.332,116.895z"/>
			<path style="fill:#338B7D;" d="M215.842,98.73c-1.046-0.463-1.835,0.061-2.282,0.897c-0.955,0.526-1.643,1.386-1.018,2.529
				c0.221,0.401,0.648,0.593,1.117,0.742c0.255,0.296,0.607,0.51,1.011,0.346c0.035-0.014,0.051-0.04,0.085-0.054
				c0.446,0.104,0.875,0.215,1.173,0.437c0.619,0.465,0.973,0.483,1.467-0.194C218.264,102.246,217.079,99.282,215.842,98.73z"/>
			<path style="fill:#338B7D;" d="M207.823,90.883c-0.241-0.44-0.573-0.331-0.826-0.031c-0.056-0.016-0.083-0.089-0.127-0.056
				c-0.775,0.593-1.059,1.569-0.911,2.55c0.316,1.985,0.956,2.156,2.668,3.002c0.757,0.365,1.698-0.145,1.857-0.953
				C210.908,93.171,208.777,92.626,207.823,90.883z"/>
			<path style="fill:#338B7D;" d="M212.66,95.828c0.135-0.052,0.164-0.367-0.004-0.304c-0.064,0.024-0.091,0.104-0.102,0.173
				c-0.014-0.017-0.016-0.037-0.037-0.052c-0.195-0.128-0.39-0.251-0.584-0.377c-0.026-0.009-0.039,0.016-0.061,0.008
				c-0.054-0.009-0.095-0.003-0.153,0.02c-0.144,0.015-0.25,0.069-0.335,0.22c-0.198,0.248-0.237,0.535-0.099,0.744
				c0.029,0.078,0.062,0.106,0.108,0.15c0.029,0.016,0.017,0.043,0.043,0.053c0.226,0.066,0.446,0.133,0.668,0.195
				c0.467,0.138,0.743-0.519,0.511-0.875C212.63,95.798,212.627,95.84,212.66,95.828z"/>
			<path style="fill:#338B7D;" d="M222.347,54.576c-0.436-0.143-0.661-0.273-1.077-0.078c-0.431,0.219-1.553-0.629-2.166-0.584
				c-0.125,0.011-0.219,0.082-0.328,0.137c-0.279-0.103-0.55-0.034-0.806,0.18c-0.649,0.538-0.993,1.289-0.85,1.982
				c-0.57,1.189-0.279,2.628,1.013,3.229c-0.34,0.344-0.659,0.737-0.716,1.193c-0.073,0.582,0.374,1.844,0.218,2.252
				c-0.756,1.942-3.03,2.882-4.555,3.996c-0.92,0.67-1.207,1.756-2.153,2.43c-0.546,0.39-0.96,0.93-1.209,1.545
				c-0.663,1.625,1.072,3.143,0.641,4.496c-0.128,0.388-0.091,0.74,0.16,1.029c-0.074,0.529-0.094,1.069-0.065,1.683
				c0.015,0.283,0.223,0.651,0.571,0.515c1.489-0.592,2.521-2.9,2.577-4.426c0.06-1.642,1.601-2.287,2.417-3.572
				c0.033-0.059,2.233-2.808,2.15-2.931c0.016-0.005,0.025-0.017,0.035-0.024c0.449,0.078,0.782-0.246,1.007-0.658
				c0.917-0.551,1.838-1.561,2.04-2.594c0.348-1.764-1.713-3.17-1.617-4.943c0.006-0.121-0.033-0.212-0.068-0.311
				c0.531-0.719,0.27-1.205,0.285-2.022c-0.029,1.433,2.677,0.016,3.068-0.478C223.365,56.055,223.049,54.818,222.347,54.576z"/>
		</g>
		<g>
			<g>
				<path style="fill:#EC1B2D;" d="M262.55,101.732c-0.075,5.669-4.758,10.224-10.437,10.147c-5.68-0.075-10.225-4.75-10.149-10.42
					c0.075-5.695,4.743-10.254,10.423-10.179C258.064,91.356,262.625,96.037,262.55,101.732z"/>
				<polygon style="fill:#EC1B2D;" points="252.209,129.047 242.486,104.705 261.94,104.962 				"/>
			</g>
			<path style="fill:#FCF3E8;" d="M261.03,101.712c-0.065,4.837-4.044,8.709-8.896,8.646c-4.838-0.064-8.712-4.041-8.648-8.878
				c0.064-4.852,4.042-8.713,8.88-8.649C257.219,92.895,261.094,96.86,261.03,101.712z"/>
		</g>
		<g>
			<g>
				<path style="fill:#EC1B2D;" d="M103.483,102.6c-0.075,5.668-4.759,10.223-10.438,10.146c-5.679-0.074-10.224-4.75-10.148-10.42
					c0.075-5.694,4.742-10.252,10.421-10.178C98.998,92.225,103.559,96.903,103.483,102.6z"/>
				<polygon style="fill:#EC1B2D;" points="93.143,129.913 83.42,105.571 102.875,105.83 				"/>
			</g>
			<path style="fill:#FCF3E8;" d="M101.964,102.579c-0.065,4.834-4.045,8.708-8.897,8.646c-4.837-0.065-8.712-4.044-8.647-8.878
				c0.064-4.852,4.042-8.715,8.879-8.649C98.151,93.76,102.027,97.728,101.964,102.579z"/>
		</g>
	</g>
</g>
</svg>
